<svg width="1920" height="1080" viewBox="0 0 1920 1080" fill="none" xmlns="http://www.w3.org/2000/svg">
<g id="bg-hero3" clip-path="url(#clip0)">
<rect width="1920" height="1080" fill="#050607"/>
<g id="Vector 1" filter="url(#filter0_f)">
<path d="M286 393.429C664.839 276.759 1105.91 203.944 1405 262.895C1704.1 321.846 1612.07 490.278 1390.36 511.332C1168.65 532.385 737.443 379.835 286 393.429Z" fill="url(#paint0_linear)" fill-opacity="0.3"/>
<path d="M286 393.429C664.839 276.759 1105.91 203.944 1405 262.895C1704.1 321.846 1612.07 490.278 1390.36 511.332C1168.65 532.385 737.443 379.835 286 393.429Z" stroke="black"/>
</g>
<g id="Vector 2" filter="url(#filter1_f)">
<path d="M1592.1 691.65C1213.44 806.368 772.897 876.909 474.715 816.415C176.534 755.922 269.246 587.964 490.61 568.054C711.974 548.143 1141.51 702.917 1592.1 691.65Z" fill="url(#paint1_linear)" fill-opacity="0.3"/>
<path d="M1592.1 691.65C1213.44 806.368 772.897 876.909 474.715 816.415C176.534 755.922 269.246 587.964 490.61 568.054C711.974 548.143 1141.51 702.917 1592.1 691.65Z" stroke="black"/>
</g>
<path id="bg-heroline1" d="M1916.82 834.049C1220.34 184.628 925.693 1069.66 86.443 372.437" stroke="url(#paint2_linear)"/>
<path id="bg-heroline2" d="M1919.13 318.093C1016.91 -21.1205 1103.87 816.001 51.1793 479.401" stroke="url(#paint3_linear)"/>
<path id="bg-heroline3" d="M1152 340C846 830 313.242 589.364 0.491984 1007.3" stroke="url(#paint4_linear)"/>
</g>
<defs>
<filter id="filter0_f" x="-95.1472" y="-139.5" width="2071.65" height="1034.33" filterUnits="userSpaceOnUse" color-interpolation-filters="sRGB">
<feFlood flood-opacity="0" result="BackgroundImageFix"/>
<feBlend mode="normal" in="SourceGraphic" in2="BackgroundImageFix" result="shape"/>
<feGaussianBlur stdDeviation="190.5" result="effect1_foregroundBlur"/>
</filter>
<filter id="filter1_f" x="-96.5031" y="183.497" width="2070.37" height="1041.08" filterUnits="userSpaceOnUse" color-interpolation-filters="sRGB">
<feFlood flood-opacity="0" result="BackgroundImageFix"/>
<feBlend mode="normal" in="SourceGraphic" in2="BackgroundImageFix" result="shape"/>
<feGaussianBlur stdDeviation="190.5" result="effect1_foregroundBlur"/>
</filter>
<linearGradient id="paint0_linear" x1="940.5" y1="242" x2="940.5" y2="513.33" gradientUnits="userSpaceOnUse">
<stop stop-color="#2DC7ED"/>
<stop offset="1" stop-color="#538BF0" stop-opacity="0"/>
</linearGradient>
<linearGradient id="paint1_linear" x1="938.16" y1="839.705" x2="939.562" y2="568.375" gradientUnits="userSpaceOnUse">
<stop stop-color="#2DC7ED"/>
<stop offset="1" stop-color="#538BF0" stop-opacity="0"/>
</linearGradient>
<linearGradient id="paint2_linear" x1="1242.36" y1="297.116" x2="763.636" y2="905.884" gradientUnits="userSpaceOnUse">
<stop stop-color="#538BF0"/>
<stop offset="1" stop-color="white" stop-opacity="0"/>
</linearGradient>
<linearGradient id="paint3_linear" x1="1082.6" y1="67.3548" x2="888.823" y2="726.365" gradientUnits="userSpaceOnUse">
<stop stop-color="#538BF0"/>
<stop offset="1" stop-color="white" stop-opacity="0.1"/>
</linearGradient>
<linearGradient id="paint4_linear" x1="564.008" y1="363.177" x2="588.484" y2="984.119" gradientUnits="userSpaceOnUse">
<stop stop-color="white" stop-opacity="0"/>
<stop offset="1" stop-color="#538BF0"/>
</linearGradient>
<clipPath id="clip0">
<rect width="1920" height="1080" fill="white"/>
</clipPath>
</defs>
</svg>
