<svg width="1920" height="1080" viewBox="0 0 1920 1080" fill="none" xmlns="http://www.w3.org/2000/svg">
<g id="bg-hero-ocean2" clip-path="url(#clip0)">
<rect width="1920" height="1080" fill="#050607"/>
<g id="Vector 1" filter="url(#filter0_f)">
<path d="M286 393.429C664.839 276.759 1105.91 203.944 1405 262.895C1704.1 321.846 1612.07 490.278 1390.36 511.332C1168.65 532.385 737.443 379.835 286 393.429Z" fill="url(#paint0_linear)" fill-opacity="0.3"/>
<path d="M286 393.429C664.839 276.759 1105.91 203.944 1405 262.895C1704.1 321.846 1612.07 490.278 1390.36 511.332C1168.65 532.385 737.443 379.835 286 393.429Z" stroke="black"/>
</g>
<g id="Vector 2" filter="url(#filter1_f)">
<path d="M1592.1 691.65C1213.44 806.368 772.897 876.909 474.716 816.415C176.534 755.922 269.246 587.964 490.61 568.054C711.974 548.143 1141.51 702.917 1592.1 691.65Z" fill="url(#paint1_linear)" fill-opacity="0.3"/>
<path d="M1592.1 691.65C1213.44 806.368 772.897 876.909 474.716 816.415C176.534 755.922 269.246 587.964 490.61 568.054C711.974 548.143 1141.51 702.917 1592.1 691.65Z" stroke="black"/>
</g>
<path id="bg-heroline3" d="M2189.84 106.261C916.065 186.906 1114.21 777.798 -253.376 761.377L-177.104 1045.83L2266.12 390.713L2189.84 106.261Z" fill="url(#paint2_linear)" fill-opacity="0.4"/>
<path id="bg-heroline2" d="M-336.001 591.155C740.327 40.0016 1064.21 606.951 2134.14 -71.3855L2208.62 206.299L-261.521 868.84L-336.001 591.155Z" fill="url(#paint3_linear)" fill-opacity="0.45"/>
<path id="bg-heroline1" d="M-218.948 725.191C273.071 252.782 1342.21 89.1973 2049.05 -34.6866L2161.17 -52.9004L2135.84 224.372C1309.02 774.349 790.007 843.95 -243.542 994.482L-218.948 725.191Z" fill="url(#paint4_linear)" fill-opacity="0.35"/>
</g>
<defs>
<filter id="filter0_f" x="-95.1472" y="-139.5" width="2071.65" height="1034.33" filterUnits="userSpaceOnUse" color-interpolation-filters="sRGB">
<feFlood flood-opacity="0" result="BackgroundImageFix"/>
<feBlend mode="normal" in="SourceGraphic" in2="BackgroundImageFix" result="shape"/>
<feGaussianBlur stdDeviation="190.5" result="effect1_foregroundBlur"/>
</filter>
<filter id="filter1_f" x="-95.7594" y="184.783" width="2069.01" height="1035.29" filterUnits="userSpaceOnUse" color-interpolation-filters="sRGB">
<feFlood flood-opacity="0" result="BackgroundImageFix"/>
<feBlend mode="normal" in="SourceGraphic" in2="BackgroundImageFix" result="shape"/>
<feGaussianBlur stdDeviation="190.5" result="effect1_foregroundBlur"/>
</filter>
<linearGradient id="paint0_linear" x1="940.5" y1="242" x2="940.5" y2="513.33" gradientUnits="userSpaceOnUse">
<stop stop-color="#2DC7ED"/>
<stop offset="1" stop-color="#538BF0" stop-opacity="0"/>
</linearGradient>
<linearGradient id="paint1_linear" x1="938.16" y1="839.705" x2="939.562" y2="568.375" gradientUnits="userSpaceOnUse">
<stop stop-color="#2DC7ED"/>
<stop offset="1" stop-color="#538BF0" stop-opacity="0"/>
</linearGradient>
<linearGradient id="paint2_linear" x1="1220.73" y1="301.912" x2="1313.06" y2="646.26" gradientUnits="userSpaceOnUse">
<stop stop-color="#2DC7ED"/>
<stop offset="1" stop-color="#538AF0" stop-opacity="0"/>
</linearGradient>
<linearGradient id="paint3_linear" x1="883.022" y1="200.063" x2="973.548" y2="537.569" gradientUnits="userSpaceOnUse">
<stop stop-color="#538AF0"/>
<stop offset="1" stop-color="#2DC7ED" stop-opacity="0"/>
</linearGradient>
<linearGradient id="paint4_linear" x1="866.758" y1="196.038" x2="1053.25" y2="752.668" gradientUnits="userSpaceOnUse">
<stop stop-color="#2DC7ED"/>
<stop offset="1" stop-color="#538AF0"/>
</linearGradient>
<clipPath id="clip0">
<rect width="1920" height="1080" fill="white"/>
</clipPath>
</defs>
</svg>
