<svg viewBox="0 0 512 512" fill="none" xmlns="http://www.w3.org/2000/svg">
<path id="Vector 3" d="M192.996 512C57.6713 459.481 0.0572676 375.244 0 238.178C16.135 107.288 107.444 23.7636 192.996 8.66628C243.632 -5.61895 278.773 0.202484 322.658 8.66628C366.544 17.1301 505.681 87.8259 511.665 238.178C517.649 388.531 443.119 449.199 315.178 512C315.975 418.396 315.81 368.495 296.227 360.651C376.192 339.528 392.208 313.293 403.946 258.093C404.417 212.997 396.901 195.953 377.515 170.47C386.404 150.256 389.857 138.086 377.515 106.246C349.091 111.033 333.954 117.075 308.196 133.131C260.524 118.711 236.027 122.612 192.996 133.131C171.726 113.035 158.661 108.164 134.15 106.246C124.541 123.37 123.989 138.123 128.664 170.47C105.153 207.048 101.517 225.965 104.727 258.093C117.205 322.694 146.998 340 212.446 360.651C201.817 372.173 197.457 381.066 192.996 401.974C170.083 399.056 159.328 394.674 149.111 375.089C122.911 349.1 111.558 344.535 94.7528 346.711L99.7398 375.089C113.392 378.43 120.896 385.341 134.15 401.974C144.096 419.203 157.537 424.803 192.996 428.858V512Z" fill="url(#paint0_linear)"/>
<defs>
<linearGradient id="paint0_linear" x1="256" y1="0" x2="256" y2="512" gradientUnits="userSpaceOnUse">
<stop stop-color="#2DC7ED"/>
<stop offset="1" stop-color="#538AF0"/>
</linearGradient>
</defs>
</svg>
