<svg width="1732" height="829" viewBox="0 0 1732 829" fill="none" xmlns="http://www.w3.org/2000/svg">
<g filter="url(#filter0_i_1014_9)">
<path d="M174.737 78.0807C144.72 177.864 4 820.179 4 820.179H197.64L295.502 320.01C295.502 320.01 441.252 700.573 472.485 760.376C503.717 820.179 620.318 871.836 676.536 760.376C732.754 648.916 855.601 320.01 855.601 320.01L897.244 551.067H1084.64C1084.64 551.067 997.187 146.03 980.53 78.0807C963.873 10.1312 822.167 -43.0001 778.561 78.0807C734.955 199.161 580.757 551.067 580.757 551.067H576.592C576.592 551.067 413.415 178.512 378.788 78.0807C344.16 -22.3507 204.753 -21.7026 174.737 78.0807Z" fill="url(#paint0_linear_1014_9)"/>
<path d="M953.462 820.179L911.819 613.597C911.819 613.597 1444.13 628.66 1501.07 613.597C1558.01 598.534 1557.68 495.052 1501.07 491.273C1488.06 490.405 1484.99 489.935 1484.61 489.727C1480.24 490.126 1451.66 491.273 1299.1 491.273C1022.17 491.273 1078.27 26.3431 1290.77 18.2867C1503.27 10.2302 1711.37 18.2867 1711.37 18.2867L1590.6 224.878C1590.6 224.878 1382.04 224.46 1332.41 224.878C1282.79 225.296 1279.57 342.759 1332.41 341.766C1385.26 340.773 1327.92 342.809 1551.04 341.766C1774.16 340.723 1802.07 792.071 1551.04 809.315C1300.01 826.56 953.462 820.179 953.462 820.179Z" fill="url(#paint1_linear_1014_9)"/>
</g>
<path d="M4 820.179C4 820.179 144.72 177.864 174.737 78.0807C204.753 -21.7026 344.16 -22.3507 378.788 78.0807C413.415 178.512 576.592 551.067 576.592 551.067H580.757C580.757 551.067 734.955 199.161 778.561 78.0807C822.167 -43.0001 963.873 10.1312 980.53 78.0807C997.187 146.03 1084.64 551.067 1084.64 551.067H897.244L855.601 320.01C855.601 320.01 732.754 648.916 676.536 760.376C620.318 871.836 503.717 820.179 472.485 760.376C441.252 700.573 295.502 320.01 295.502 320.01L197.64 820.179H4ZM911.819 613.597L953.462 820.179C953.462 820.179 1300.01 826.56 1551.04 809.315C1802.07 792.071 1774.16 340.723 1551.04 341.766C1327.92 342.809 1385.26 340.773 1332.41 341.766C1279.57 342.759 1282.79 225.296 1332.41 224.878C1382.04 224.46 1590.6 224.878 1590.6 224.878L1711.37 18.2867C1711.37 18.2867 1503.27 10.2302 1290.77 18.2867C1078.27 26.3431 1022.17 491.273 1299.1 491.273C1576.03 491.273 1444.45 487.493 1501.07 491.273C1557.68 495.052 1558.01 598.533 1501.07 613.597C1444.13 628.66 911.819 613.597 911.819 613.597Z" stroke="#2DC7ED" stroke-width="5"/>
<defs>
<filter id="filter0_i_1014_9" x="0.893005" y="0.5" width="1838.61" height="832" filterUnits="userSpaceOnUse" color-interpolation-filters="sRGB">
<feFlood flood-opacity="0" result="BackgroundImageFix"/>
<feBlend mode="normal" in="SourceGraphic" in2="BackgroundImageFix" result="shape"/>
<feColorMatrix in="SourceAlpha" type="matrix" values="0 0 0 0 0 0 0 0 0 0 0 0 0 0 0 0 0 0 127 0" result="hardAlpha"/>
<feOffset dx="660" dy="4"/>
<feGaussianBlur stdDeviation="54"/>
<feComposite in2="hardAlpha" operator="arithmetic" k2="-1" k3="1"/>
<feColorMatrix type="matrix" values="0 0 0 0 0 0 0 0 0 0 0 0 0 0 0 0 0 0 0.34 0"/>
<feBlend mode="normal" in2="shape" result="effect1_innerShadow_1014_9"/>
</filter>
<linearGradient id="paint0_linear_1014_9" x1="-1112.55" y1="-1414.04" x2="3557.65" y2="2354.83" gradientUnits="userSpaceOnUse">
<stop offset="0.267943" stop-color="#2DC7ED"/>
<stop offset="1" stop-color="#538BF0" stop-opacity="0"/>
</linearGradient>
<linearGradient id="paint1_linear_1014_9" x1="-1112.55" y1="-1414.04" x2="3557.65" y2="2354.83" gradientUnits="userSpaceOnUse">
<stop offset="0.267943" stop-color="#2DC7ED"/>
<stop offset="1" stop-color="#538BF0" stop-opacity="0"/>
</linearGradient>
</defs>
</svg>
