<svg width="803" height="823" viewBox="0 0 803 823" fill="none" xmlns="http://www.w3.org/2000/svg">
<g filter="url(#filter0_i_1005_7)">
<path d="M138.345 184.658C138.345 184.658 323.554 166.977 422.552 184.658C611.316 199.674 680.326 231.694 697.738 356.58C742.751 181.106 663.841 35.2782 500.747 3.18375L1.50375 0L138.345 184.658Z" fill="url(#paint0_linear_1005_7)"/>
<path d="M484.5 511.5L409.5 524L336.839 528.503L569.919 823H803L556.386 514.176L551.5 509L538.5 494.285L484.5 511.5Z" fill="url(#paint1_linear_1005_7)"/>
<path d="M207.517 818.224V528.503C76.2329 534.564 31.9401 571.05 0 689.282V818.224H207.517Z" fill="url(#paint2_linear_1005_7)"/>
<path d="M156.39 348.621C54.5313 358.228 17.9169 378.421 0 447.317V689.282C31.9401 571.05 76.2329 534.564 207.517 528.503H336.839L409.5 524L484.5 511.5C598.135 476.793 655.774 455.647 697.738 356.58C680.326 231.694 611.316 199.674 422.552 184.658C521.551 202.338 541.431 293.063 446.612 348.621H156.39Z" fill="url(#paint3_linear_1005_7)"/>
</g>
<defs>
<filter id="filter0_i_1005_7" x="0" y="0" width="911" height="827" filterUnits="userSpaceOnUse" color-interpolation-filters="sRGB">
<feFlood flood-opacity="0" result="BackgroundImageFix"/>
<feBlend mode="normal" in="SourceGraphic" in2="BackgroundImageFix" result="shape"/>
<feColorMatrix in="SourceAlpha" type="matrix" values="0 0 0 0 0 0 0 0 0 0 0 0 0 0 0 0 0 0 127 0" result="hardAlpha"/>
<feOffset dx="660" dy="4"/>
<feGaussianBlur stdDeviation="54"/>
<feComposite in2="hardAlpha" operator="arithmetic" k2="-1" k3="1"/>
<feColorMatrix type="matrix" values="0 0 0 0 0 0 0 0 0 0 0 0 0 0 0 0 0 0 0.25 0"/>
<feBlend mode="normal" in2="shape" result="effect1_innerShadow_1005_7"/>
</filter>
<linearGradient id="paint0_linear_1005_7" x1="-348" y1="157" x2="1144.5" y2="641.5" gradientUnits="userSpaceOnUse">
<stop offset="0.315" stop-color="#2DC7ED"/>
<stop offset="1" stop-color="#538BF0" stop-opacity="0"/>
</linearGradient>
<linearGradient id="paint1_linear_1005_7" x1="-348" y1="157" x2="1144.5" y2="641.5" gradientUnits="userSpaceOnUse">
<stop offset="0.315" stop-color="#2DC7ED"/>
<stop offset="1" stop-color="#538BF0" stop-opacity="0"/>
</linearGradient>
<linearGradient id="paint2_linear_1005_7" x1="-348" y1="157" x2="1144.5" y2="641.5" gradientUnits="userSpaceOnUse">
<stop offset="0.315" stop-color="#2DC7ED"/>
<stop offset="1" stop-color="#538BF0" stop-opacity="0"/>
</linearGradient>
<linearGradient id="paint3_linear_1005_7" x1="-348" y1="157" x2="1144.5" y2="641.5" gradientUnits="userSpaceOnUse">
<stop offset="0.315" stop-color="#2DC7ED"/>
<stop offset="1" stop-color="#538BF0" stop-opacity="0"/>
</linearGradient>
</defs>
</svg>
